<mxfile host="app.diagrams.net" modified="2024-01-17T14:32:33.518Z" agent="Mozilla/5.0 (X11; Linux x86_64; rv:121.0) Gecko/20100101 Firefox/121.0" version="22.1.18" etag="M240mBiFxgtV9SkpA166" type="github">
  <diagram name="Страница — 1" id="GzfW0hzqPYGcggtcb4U1">
    <mxGraphModel>
      <root>
        <mxCell id="0" />
        <mxCell id="1" parent="0" />
      </root>
    </mxGraphModel>
  </diagram>
</mxfile>
